<svg width="255" height="37" viewBox="0 0 255 37" fill="none" xmlns="http://www.w3.org/2000/svg">
<g clip-path="url(#clip0_58_182)">
<path d="M7.55 24.5501V36.0001H0.75V2.6501H14.85C18.6833 2.6501 21.6833 3.53343 23.85 5.3001C26.0167 7.06676 27.1 9.7501 27.1 13.3501C27.1 16.9501 26.0167 19.7168 23.85 21.6501C21.6833 23.5834 18.6833 24.5501 14.85 24.5501H7.55ZM7.55 19.1001H14C15.1333 19.1001 16.0833 18.9668 16.85 18.7001C17.6167 18.4001 18.2167 18.0001 18.65 17.5001C19.0833 16.9668 19.3833 16.3834 19.55 15.7501C19.75 15.1168 19.85 14.4334 19.85 13.7001C19.85 12.9334 19.75 12.2168 19.55 11.5501C19.3833 10.8834 19.0833 10.2834 18.65 9.7501C18.2167 9.21677 17.6167 8.81677 16.85 8.5501C16.0833 8.2501 15.1333 8.1001 14 8.1001H7.55V19.1001ZM37.9707 36.0001V13.2501C38.4374 12.9501 39.254 12.5501 40.4207 12.0501C41.6207 11.5501 43.004 11.1168 44.5707 10.7501C46.1374 10.3501 47.7207 10.1501 49.3207 10.1501C50.5207 10.1501 51.4707 10.2501 52.1707 10.4501C52.904 10.6168 53.4707 10.8334 53.8707 11.1001V15.9001C53.204 15.8001 52.4374 15.7168 51.5707 15.6501C50.7374 15.5834 49.8707 15.5668 48.9707 15.6001C48.104 15.6001 47.254 15.6334 46.4207 15.7001C45.6207 15.7668 44.9207 15.8501 44.3207 15.9501V36.0001H37.9707ZM73.552 36.7501C69.4186 36.7501 66.3186 35.6001 64.252 33.3001C62.1853 31.0001 61.152 27.6834 61.152 23.3501C61.152 18.7168 62.202 15.3501 64.302 13.2501C66.4353 11.1501 69.502 10.1001 73.502 10.1001C76.302 10.1001 78.6353 10.6001 80.502 11.6001C82.3686 12.5668 83.752 14.0334 84.652 16.0001C85.5853 17.9668 86.052 20.4168 86.052 23.3501C86.052 27.6834 84.9686 31.0001 82.802 33.3001C80.6686 35.6001 77.5853 36.7501 73.552 36.7501ZM73.552 31.5501C75.0186 31.5501 76.202 31.2168 77.102 30.5501C78.0353 29.8834 78.7186 28.9501 79.152 27.7501C79.5853 26.5168 79.802 25.0501 79.802 23.3501C79.802 21.4501 79.5686 19.9001 79.102 18.7001C78.6686 17.5001 77.9853 16.6168 77.052 16.0501C76.152 15.4834 74.9853 15.2001 73.552 15.2001C72.0853 15.2001 70.902 15.5001 70.002 16.1001C69.102 16.7001 68.4353 17.6001 68.002 18.8001C67.602 20.0001 67.402 21.5168 67.402 23.3501C67.402 26.0168 67.8853 28.0501 68.852 29.4501C69.8186 30.8501 71.3853 31.5501 73.552 31.5501ZM108.301 36.7501C106.568 36.7501 104.918 36.5501 103.351 36.1501C101.785 35.7501 100.401 35.0501 99.2012 34.0501C98.0012 33.0501 97.0512 31.6668 96.3512 29.9001C95.6845 28.1334 95.3512 25.8834 95.3512 23.1501C95.3512 19.1168 96.3345 15.9334 98.3012 13.6001C100.268 11.2668 103.251 10.1001 107.251 10.1001C107.818 10.1001 108.551 10.1668 109.451 10.3001C110.351 10.4334 111.268 10.6668 112.201 11.0001C113.168 11.3001 114.001 11.7834 114.701 12.4501L113.301 14.4501V0.350098H119.551V30.1001C119.551 31.2334 119.218 32.2168 118.551 33.0501C117.918 33.8834 117.051 34.5834 115.951 35.1501C114.851 35.6834 113.635 36.0834 112.301 36.3501C110.968 36.6168 109.635 36.7501 108.301 36.7501ZM108.501 31.3501C109.868 31.3501 111.001 31.1834 111.901 30.8501C112.835 30.5168 113.301 30.0334 113.301 29.4001V16.6001C112.568 16.1668 111.785 15.8501 110.951 15.6501C110.118 15.4501 109.318 15.3501 108.551 15.3501C107.018 15.3501 105.751 15.6334 104.751 16.2001C103.751 16.7334 103.001 17.6001 102.501 18.8001C102.001 19.9668 101.751 21.4668 101.751 23.3001C101.751 24.9001 101.951 26.3001 102.351 27.5001C102.751 28.7001 103.435 29.6501 104.401 30.3501C105.401 31.0168 106.768 31.3501 108.501 31.3501ZM131.785 36.0001V2.6501H137.885L156.085 27.5501L154.135 31.5501V2.6501H160.435V36.0001H154.935L136.285 11.0001L138.135 7.9501V36.0001H131.785ZM183.718 36.7501C179.585 36.7501 176.485 35.6001 174.418 33.3001C172.351 31.0001 171.318 27.6834 171.318 23.3501C171.318 18.7168 172.368 15.3501 174.468 13.2501C176.601 11.1501 179.668 10.1001 183.668 10.1001C186.468 10.1001 188.801 10.6001 190.668 11.6001C192.535 12.5668 193.918 14.0334 194.818 16.0001C195.751 17.9668 196.218 20.4168 196.218 23.3501C196.218 27.6834 195.135 31.0001 192.968 33.3001C190.835 35.6001 187.751 36.7501 183.718 36.7501ZM183.718 31.5501C185.185 31.5501 186.368 31.2168 187.268 30.5501C188.201 29.8834 188.885 28.9501 189.318 27.7501C189.751 26.5168 189.968 25.0501 189.968 23.3501C189.968 21.4501 189.735 19.9001 189.268 18.7001C188.835 17.5001 188.151 16.6168 187.218 16.0501C186.318 15.4834 185.151 15.2001 183.718 15.2001C182.251 15.2001 181.068 15.5001 180.168 16.1001C179.268 16.7001 178.601 17.6001 178.168 18.8001C177.768 20.0001 177.568 21.5168 177.568 23.3501C177.568 26.0168 178.051 28.0501 179.018 29.4501C179.985 30.8501 181.551 31.5501 183.718 31.5501ZM216.517 36.8001C213.917 36.8001 211.934 36.1668 210.567 34.9001C209.201 33.6001 208.517 31.7334 208.517 29.3001V15.8001H204.617V10.8001H208.517V3.8501H215.067V10.8001H220.917V15.8001H215.067V28.3001C215.067 29.3334 215.267 30.1001 215.667 30.6001C216.067 31.1001 216.767 31.3501 217.767 31.3501C218.301 31.3501 218.851 31.2668 219.417 31.1001C220.017 30.9001 220.517 30.6668 220.917 30.4001V35.9001C220.251 36.2334 219.517 36.4668 218.717 36.6001C217.951 36.7334 217.217 36.8001 216.517 36.8001ZM242.889 36.7501C240.389 36.7501 238.206 36.2501 236.339 35.2501C234.472 34.2168 233.022 32.7168 231.989 30.7501C230.956 28.7834 230.439 26.4168 230.439 23.6501C230.439 19.2501 231.489 15.9001 233.589 13.6001C235.722 11.2668 238.706 10.1001 242.539 10.1001C245.306 10.1001 247.522 10.7001 249.189 11.9001C250.889 13.1001 252.122 14.8168 252.889 17.0501C253.689 19.2501 254.072 21.8834 254.039 24.9501H234.539L234.039 20.6501H248.989L247.789 22.4501C247.722 19.8168 247.256 17.9334 246.389 16.8001C245.556 15.6334 244.206 15.0501 242.339 15.0501C241.206 15.0501 240.206 15.3168 239.339 15.8501C238.506 16.3501 237.856 17.2001 237.389 18.4001C236.956 19.6001 236.739 21.2501 236.739 23.3501C236.739 25.9501 237.356 27.9501 238.589 29.3501C239.822 30.7168 241.706 31.4001 244.239 31.4001C245.272 31.4001 246.256 31.3001 247.189 31.1001C248.156 30.8668 249.039 30.6001 249.839 30.3001C250.672 30.0001 251.372 29.7168 251.939 29.4501V35.0501C250.772 35.5501 249.439 35.9501 247.939 36.2501C246.472 36.5834 244.789 36.7501 242.889 36.7501Z" fill="#9181F4"/>
</g>
<defs>
<clipPath id="clip0_58_182">
<rect width="255" height="37" fill="white"/>
</clipPath>
</defs>
</svg>
